<svg width="88" height="88" viewBox="0 0 88 88" fill="none" xmlns="http://www.w3.org/2000/svg">
<rect width="88" height="88" rx="44" fill="url(#paint0_linear_1090_973)"/>
<path d="M28.2201 23.28C29.5301 24.69 29.4301 26.9101 28.1201 28.3201C26.7101 29.7301 24.4901 29.73 23.0801 28.42C22.9801 28.42 22.9801 28.3201 22.9801 28.3201C21.5701 26.9101 21.5701 24.5901 22.9801 23.1801C24.3901 21.7701 26.7101 21.7701 28.1201 23.1801L28.2201 23.28Z" fill="#838383" fill-opacity="0.34"/>
<path d="M21.77 44.15C21.77 46.17 20.16 47.78 18.24 47.78H18.14C16.12 47.78 14.51 46.17 14.51 44.15C14.51 42.13 16.12 40.52 18.14 40.52H18.24C20.15 40.52 21.77 42.13 21.77 44.15Z" fill="#838383" fill-opacity="0.34"/>
<path d="M47.8801 69.7601V69.9601C47.8801 71.9801 46.2701 73.5901 44.2501 73.5901C42.2301 73.5901 40.6201 71.9801 40.6201 69.9601V69.8601C40.6201 67.8401 42.2301 66.3301 44.2501 66.3301C46.2701 66.3301 47.7801 67.8401 47.8801 69.7601Z" fill="#838383" fill-opacity="0.34"/>
<path d="M28.4302 59.88C29.8402 61.29 29.8402 63.61 28.4302 65.02V65.12C27.0202 66.53 24.7002 66.53 23.2902 65.12C21.8802 63.71 21.8802 61.39 23.2902 59.98C24.7002 58.47 26.9202 58.47 28.4302 59.88Z" fill="#838383" fill-opacity="0.34"/>
<path d="M65.1202 59.5801C66.5302 60.9901 66.5302 63.3101 65.1202 64.7201C63.7102 66.1301 61.3902 66.1301 59.9802 64.7201C59.9135 64.6534 59.8468 64.5867 59.7802 64.5201C58.5702 63.1101 58.5702 60.8901 59.9802 59.5801C61.2902 58.2701 63.4102 58.1701 64.9202 59.3801C64.9202 59.4801 65.0202 59.5801 65.1202 59.5801Z" fill="#838383" fill-opacity="0.34"/>
<path d="M73.6902 43.7501C73.6902 45.7701 72.0802 47.3801 70.0602 47.3801H69.6602C67.8502 47.1801 66.4302 45.6701 66.4302 43.7501C66.4302 41.9301 67.8402 40.3201 69.5602 40.1201H70.0602C71.9802 40.1201 73.6902 41.7301 73.6902 43.7501Z" fill="#838383" fill-opacity="0.34"/>
<path d="M64.8201 22.8802C66.2301 24.2902 66.2301 26.6101 64.8201 28.0201C64.7201 28.1201 64.6202 28.2202 64.5202 28.3202C63.1102 29.4302 60.9902 29.3301 59.6802 28.0201C58.3702 26.7101 58.2701 24.6902 59.3801 23.1802C59.4801 23.0802 59.5802 22.8801 59.6802 22.7801C61.0902 21.4701 63.4101 21.4702 64.8201 22.8802Z" fill="#838383" fill-opacity="0.34"/>
<path d="M47.4802 18.0402V18.4402C47.2802 20.2502 45.7702 21.6702 43.8502 21.6702C41.9302 21.6702 40.4202 20.2602 40.2202 18.4402V18.0402C40.2202 16.0202 41.8302 14.4102 43.8502 14.4102C45.8702 14.4102 47.4802 16.0202 47.4802 18.0402Z" fill="#838383" fill-opacity="0.34"/>
<path d="M55.1401 34.47C55.1401 41.63 55.2401 45.36 54.7401 48.08C54.0301 51.41 52.3201 52.92 47.9901 57.46C47.6901 57.76 47.3901 58.06 46.9801 58.47H41.3301C41.0301 58.17 40.6201 57.76 40.3201 57.46C37.6001 54.64 35.8801 53.02 34.7801 51.21C34.1701 50.2 33.7701 49.29 33.5701 48.08C33.1701 46.06 33.0701 43.44 33.0701 39.31V34.47C37.1001 35.18 40.8301 34.47 44.0601 32.25C45.1701 33.16 46.3801 33.76 47.7901 34.17C50.0101 34.88 52.4301 34.88 55.1501 34.47H55.1401Z" fill="#838383" fill-opacity="0.34"/>
<path d="M59.3802 24.4902C59.0802 24.4902 58.8802 24.3901 58.6702 24.2901L58.4702 24.1902C58.1702 23.9902 58.0702 23.6902 57.9702 23.3802C57.9702 23.0802 57.9702 22.6701 58.1702 22.4701C58.3702 22.1701 58.7702 21.9701 59.1802 21.9701C59.4802 21.9701 59.6802 22.0701 59.8902 22.1701H60.0902C60.3902 22.3701 60.5902 22.7702 60.5902 23.1802C60.5902 23.4802 60.4902 23.6801 60.3902 23.8901C60.0902 24.3901 59.7802 24.5002 59.3802 24.5002V24.4902ZM56.2602 22.5702C56.0602 22.5702 55.8602 22.4702 55.6602 22.3702C55.6602 22.3702 55.5602 22.3701 55.5602 22.2701C55.2602 22.0701 55.0602 21.8702 54.9602 21.5602C54.8602 21.2602 54.8602 20.8502 55.0602 20.5502C55.2602 20.1502 55.6702 19.8401 56.1702 19.8401C56.3702 19.8401 56.5702 19.9402 56.7702 19.9402C56.7702 19.9402 56.8702 19.9401 56.8702 20.0401C57.2702 20.2401 57.5802 20.6401 57.5802 21.1501C57.5802 21.3501 57.4802 21.5502 57.3802 21.7502C57.1802 22.2502 56.7702 22.5602 56.2702 22.5602L56.2602 22.5702ZM52.9302 21.0602C52.8302 21.0602 52.6302 21.0601 52.5302 20.9601H52.4302C52.1302 20.8601 51.8202 20.6602 51.7202 20.3602C51.6202 20.0602 51.5202 19.7501 51.7202 19.3501C51.9202 18.8501 52.4302 18.5401 52.9302 18.5401C53.0302 18.5401 53.2302 18.5401 53.3302 18.6401H53.4302C53.9302 18.8401 54.2402 19.2401 54.2402 19.8501C54.2402 20.0501 54.2402 20.1502 54.1402 20.2502C53.9402 20.7502 53.4302 21.0602 52.9302 21.0602ZM49.5002 20.0502H49.0002C48.7002 19.9502 48.3902 19.7502 48.1902 19.5502C47.9902 19.2502 47.9902 18.9401 47.9902 18.6401C48.0902 18.3401 48.1902 18.1402 48.3902 17.9302C48.6902 17.7302 49.1002 17.6301 49.4002 17.7301H49.5002C49.8002 17.8301 50.0002 17.9302 50.2102 18.1302C50.4102 18.3302 50.5102 18.6302 50.5102 18.9402V19.2402C50.4102 19.5402 50.3102 19.7401 50.1102 19.9501C50.0102 19.9501 49.7102 20.0502 49.5102 20.0502H49.5002Z" fill="#F9F9F9"/>
<path d="M69.4601 41.4301C69.1601 41.4301 68.8501 41.3301 68.6501 41.1301C68.4501 40.9301 68.2501 40.6301 68.2501 40.3201V40.2201C68.1501 39.9201 68.2501 39.5101 68.4501 39.3101C68.6501 39.0101 68.9501 38.9101 69.2601 38.8101C69.6601 38.7101 69.9701 38.8101 70.2701 39.1101C70.4701 39.3101 70.6701 39.6101 70.6701 39.9201V40.0201V40.2201C70.6701 40.5201 70.5701 40.8301 70.3701 41.0301C70.1701 41.2301 69.8701 41.4301 69.5601 41.4301C69.6601 41.4301 69.5601 41.4301 69.4601 41.4301ZM68.6501 37.9001C68.3501 37.9001 68.1501 37.8001 67.9401 37.7001C67.7401 37.5001 67.5401 37.3001 67.4401 37.1001V37.0001C67.2401 36.2901 67.6401 35.5901 68.2501 35.3901C68.6501 35.2901 69.0601 35.3901 69.3601 35.5901C69.5601 35.7901 69.7601 35.9901 69.8601 36.2001V36.3001C69.8601 36.4001 69.9601 36.5001 69.9601 36.7001C69.9601 37.0001 69.8601 37.2001 69.7601 37.4101C69.5601 37.6101 69.3601 37.8101 69.1601 37.9101C68.9601 37.8101 68.8601 37.9101 68.6601 37.9101L68.6501 37.9001ZM67.4401 34.4701C66.9401 34.4701 66.5301 34.1701 66.3301 33.7701V33.6701C66.0301 33.0601 66.3301 32.2601 66.9401 31.9601C67.1401 31.8601 67.2401 31.8601 67.4401 31.8601C67.9401 31.8601 68.3501 32.1601 68.5501 32.5701C68.5501 32.5701 68.5501 32.6701 68.6501 32.6701C68.7501 32.8701 68.7501 32.9701 68.7501 33.1701C68.7501 33.6701 68.4501 34.0801 68.0401 34.2801C67.7401 34.3801 67.5401 34.4801 67.4401 34.4801V34.4701ZM65.6201 31.2401C65.2201 31.2401 64.8101 31.0401 64.6101 30.6301C64.6101 30.6301 64.6101 30.5301 64.5101 30.5301C64.1101 29.9301 64.3101 29.1201 64.9101 28.8201C65.1101 28.7201 65.3101 28.6201 65.6201 28.6201C66.0201 28.6201 66.4301 28.8201 66.6301 29.2301C66.6301 29.2301 66.6301 29.3301 66.7301 29.3301C66.8301 29.5301 66.9301 29.7301 66.9301 30.0401C66.9301 30.4401 66.7301 30.8501 66.3201 31.1501C66.1201 31.1501 65.8201 31.2501 65.6101 31.2501L65.6201 31.2401Z" fill="#F9F9F9"/>
<path d="M64.8201 60.5801C64.5201 60.5801 64.3201 60.4801 64.1101 60.3801C63.8101 60.1801 63.6101 59.7701 63.6101 59.3701C63.6101 59.0701 63.7101 58.8701 63.8101 58.6601C63.8101 58.6601 63.8101 58.5601 63.9101 58.5601C64.1101 58.2601 64.5201 58.0601 64.9201 58.0601C65.2201 58.0601 65.4201 58.1601 65.6301 58.2601C66.2401 58.6601 66.3401 59.4701 65.9301 59.9701L65.8301 60.0701C65.6301 60.4701 65.2301 60.5701 64.8201 60.5701V60.5801ZM66.7401 57.5601C66.5401 57.5601 66.3401 57.5601 66.1401 57.4601C65.7401 57.2601 65.4301 56.8501 65.4301 56.3501C65.4301 56.1501 65.5301 55.9501 65.5301 55.7401C65.5301 55.7401 65.5301 55.6401 65.6301 55.6401C65.8301 55.2401 66.2401 54.9301 66.7401 54.9301C66.9401 54.9301 67.1401 54.9301 67.3501 55.0301C67.6501 55.2301 67.8501 55.4301 67.9501 55.7401C68.0501 56.0401 68.0501 56.4501 67.8501 56.7501V56.8501C67.6501 57.2501 67.2401 57.5601 66.7401 57.5601ZM68.2501 54.2301C68.1501 54.2301 67.9501 54.2301 67.8501 54.1301C67.3501 53.9301 67.0401 53.5201 67.0401 52.9201C67.0401 52.8201 67.0401 52.6201 67.1401 52.5201V52.4201C67.3401 51.9201 67.8501 51.6101 68.3501 51.6101C68.4501 51.6101 68.6501 51.6101 68.7501 51.7101C69.0501 51.8101 69.3501 52.0101 69.4601 52.3101C69.5601 52.6101 69.6601 52.9201 69.4601 53.3201V53.4201C69.2601 53.8201 68.7501 54.2301 68.2501 54.2301ZM69.2601 50.7001H68.9601C68.3601 50.6001 67.9501 50.1001 67.9501 49.4901V49.0901C68.0501 48.4801 68.5501 48.0801 69.1601 48.0801H69.4601C69.7601 48.1801 70.0601 48.3801 70.2701 48.5801C70.4701 48.8801 70.5701 49.1901 70.4701 49.4901V49.5901C70.3701 50.2901 69.8701 50.7001 69.2601 50.7001Z" fill="#F9F9F9"/>
<path d="M47.8802 70.97C47.5802 70.97 47.2802 70.87 47.0702 70.67C46.8702 70.47 46.6702 70.17 46.6702 69.86V69.66C46.6702 69.36 46.7702 69.05 46.9702 68.85C47.1702 68.65 47.4702 68.45 47.7802 68.45H47.8802C48.2802 68.35 48.5902 68.4501 48.8902 68.7501C49.0902 68.9501 49.2902 69.2501 49.2902 69.5601C49.3902 70.2601 48.8902 70.87 48.2802 70.97H47.8802ZM51.4102 70.16C51.1102 70.16 50.9102 70.06 50.7002 69.96C50.5002 69.76 50.3002 69.56 50.2002 69.36C50.2002 69.26 50.1002 69.16 50.1002 68.96C50.1002 68.46 50.5002 67.9501 51.0102 67.7501H51.1102C51.2102 67.7501 51.3102 67.65 51.5102 67.65C52.0102 67.65 52.5202 68.0501 52.7202 68.5601C52.8202 68.8601 52.8202 69.2701 52.6202 69.5701C52.4202 69.8701 52.2202 70.07 51.9202 70.17H51.4202L51.4102 70.16ZM54.8402 68.85C54.3402 68.85 53.9302 68.55 53.7302 68.14C53.6302 67.94 53.6302 67.84 53.6302 67.64C53.6302 67.14 53.9302 66.73 54.3402 66.53H54.4402C54.6402 66.43 54.7402 66.4301 54.9402 66.4301C55.4402 66.4301 55.8502 66.73 56.0502 67.14C56.1502 67.44 56.2502 67.74 56.0502 68.15C55.9502 68.45 55.7502 68.76 55.4402 68.86H54.8402V68.85ZM58.0702 67.14C57.6702 67.14 57.2602 66.94 57.0602 66.53C56.9602 66.33 56.8602 66.1301 56.8602 65.8201C56.8602 65.4201 57.0602 65.0101 57.4702 64.8101C57.4702 64.8101 57.5702 64.81 57.5702 64.71C57.7702 64.61 57.9702 64.51 58.2802 64.51C58.6802 64.51 59.0902 64.71 59.2902 65.11C59.6902 65.71 59.4902 66.5201 58.8902 66.8201H58.7902C58.4902 67.0201 58.2902 67.1201 58.0802 67.1201L58.0702 67.14Z" fill="#F9F9F9"/>
<path d="M38.5102 70.77H38.1102C37.8102 70.67 37.6102 70.5701 37.4002 70.3701C37.2002 70.1701 37.1002 69.8701 37.1002 69.5601V69.26C37.2002 68.96 37.3002 68.76 37.5002 68.55C37.8002 68.35 38.2102 68.25 38.5102 68.35H38.6102C38.9102 68.45 39.2102 68.65 39.4202 68.85C39.6202 69.15 39.6202 69.45 39.6202 69.76C39.6202 70.37 39.1202 70.77 38.5102 70.77ZM34.9802 69.76C34.8802 69.76 34.6802 69.76 34.5802 69.66H34.4802C33.9802 69.46 33.6702 68.95 33.6702 68.45C33.6702 68.35 33.6702 68.15 33.7702 68.05C33.9702 67.55 34.4802 67.2401 34.9802 67.2401C35.0802 67.2401 35.2802 67.24 35.3802 67.34H35.4802C36.0902 67.54 36.4902 68.35 36.1902 68.95C35.9902 69.45 35.4802 69.76 34.9802 69.76ZM31.6502 68.2501C31.4502 68.2501 31.2502 68.15 31.0502 68.15C31.0502 68.15 30.9502 68.15 30.9502 68.05C30.5502 67.85 30.2402 67.4501 30.2402 66.9401C30.2402 66.7401 30.3402 66.54 30.4402 66.34C30.6402 65.94 31.0502 65.6301 31.5502 65.6301C31.7502 65.6301 31.9502 65.73 32.1502 65.83H32.2502C32.5502 66.03 32.7502 66.23 32.8602 66.54C32.9602 66.84 32.9602 67.25 32.7602 67.55C32.5602 68.05 32.0502 68.2501 31.6502 68.2501ZM28.5302 66.34C28.2302 66.34 28.0302 66.24 27.8202 66.14L27.7202 66.04C27.4202 65.84 27.2202 65.44 27.2202 65.03C27.2202 64.73 27.3202 64.5301 27.4202 64.3201C27.6202 64.0201 28.0202 63.8201 28.4302 63.8201C28.7302 63.8201 28.9302 63.92 29.1402 64.02C29.1402 64.02 29.2402 64.0201 29.2402 64.1201C29.8502 64.5201 29.9502 65.33 29.5402 65.83C29.3402 66.13 28.9402 66.33 28.5302 66.33V66.34Z" fill="#F9F9F9"/>
<path d="M21.9702 59.3701C21.5702 59.3701 21.1602 59.17 20.8602 58.77L20.7602 58.67C20.6602 58.47 20.5602 58.27 20.5602 57.96C20.5602 57.56 20.7602 57.15 21.1602 56.85C21.3602 56.75 21.5602 56.65 21.8702 56.65C22.2702 56.65 22.6802 56.8501 22.9802 57.2501C22.9802 57.2501 22.9802 57.35 23.0802 57.35C23.4802 57.96 23.2802 58.7601 22.6802 59.0601C22.4802 59.2601 22.2802 59.36 21.9702 59.36V59.3701ZM20.2602 56.14C19.7602 56.14 19.3502 55.8401 19.1502 55.4301C19.1502 55.4301 19.1502 55.33 19.0502 55.33C18.9502 55.13 18.9502 55.03 18.9502 54.83C18.9502 54.33 19.2502 53.92 19.6602 53.72C19.8602 53.62 19.9602 53.6201 20.1602 53.6201C20.6602 53.6201 21.0702 53.92 21.2702 54.33V54.4301C21.3702 54.7301 21.4702 55.0401 21.2702 55.4401C21.1702 55.7401 20.9702 56.04 20.6702 56.15H20.2702L20.2602 56.14ZM18.9502 52.71C18.6502 52.71 18.4502 52.61 18.2402 52.51C18.0402 52.31 17.8402 52.11 17.7402 51.8V51.7C17.7402 51.6 17.6402 51.5 17.6402 51.3C17.6402 51 17.7402 50.8 17.8402 50.59C18.0402 50.39 18.2402 50.19 18.5502 50.09H18.8502C19.4602 50.09 19.8602 50.4901 20.0602 51.0001V51.1C20.1602 51.4 20.1602 51.81 19.9602 52.11C19.7602 52.41 19.5602 52.61 19.2502 52.71H18.9502ZM18.1402 49.1801C17.8402 49.1801 17.5302 49.0801 17.3302 48.8801C17.1302 48.6801 16.9302 48.3801 16.9302 48.0701V47.97V47.77C16.9302 47.17 17.4302 46.5601 18.0402 46.5601C18.4402 46.5601 18.7502 46.66 19.0502 46.86C19.2502 47.06 19.4502 47.36 19.4502 47.67V47.77C19.4502 48.07 19.4502 48.4801 19.2502 48.6801C19.0502 48.9801 18.7502 49.0801 18.4402 49.1801H18.1402Z" fill="#F9F9F9"/>
<path d="M18.4401 39.71H18.1401C17.8401 39.61 17.5301 39.41 17.3301 39.21C17.1301 38.91 17.1301 38.6 17.1301 38.3V38.2C17.2301 37.9 17.3302 37.7 17.5302 37.49C17.8302 37.29 18.2401 37.19 18.6401 37.29C18.9401 37.39 19.1401 37.49 19.3501 37.69C19.5501 37.89 19.6501 38.19 19.6501 38.5V38.8V38.9C19.5501 39.2 19.4501 39.4 19.2501 39.61C19.0501 39.61 18.7501 39.71 18.4401 39.71ZM19.5501 36.18C19.3501 36.18 19.2501 36.18 19.1501 36.08C18.5501 35.88 18.1401 35.07 18.4401 34.47V34.37C18.6401 33.87 19.1501 33.56 19.6501 33.56C19.8501 33.56 19.9501 33.56 20.0501 33.66C20.5501 33.86 20.8601 34.37 20.8601 34.87C20.8601 35.07 20.8601 35.17 20.7601 35.27V35.37C20.5601 35.87 20.0501 36.18 19.5501 36.18ZM21.0602 32.95C20.8602 32.95 20.6601 32.85 20.4501 32.75C20.1501 32.55 19.9501 32.35 19.8501 32.04C19.7501 31.74 19.7501 31.33 19.9501 31.03L20.0501 30.93C20.2501 30.53 20.6601 30.33 21.1601 30.33C21.3601 30.33 21.5601 30.43 21.7601 30.53C22.1601 30.73 22.3701 31.13 22.3701 31.64C22.3701 31.84 22.2701 32.04 22.1701 32.24C22.1701 32.24 22.1701 32.34 22.0701 32.34C21.9701 32.64 21.4701 32.95 21.0602 32.95ZM22.9701 29.82C22.6701 29.82 22.4701 29.72 22.2701 29.62C21.6601 29.22 21.5601 28.41 21.9701 27.81V27.71C22.1701 27.41 22.5701 27.21 22.9801 27.21C23.2801 27.21 23.4801 27.3099 23.7901 27.5099C24.0901 27.7099 24.2901 28.11 24.2901 28.52C24.2901 28.82 24.1901 29.02 23.9901 29.23C23.9901 29.23 23.9901 29.33 23.8901 29.33C23.7901 29.63 23.3901 29.83 22.9801 29.83L22.9701 29.82Z" fill="#F9F9F9"/>
<path d="M29.8401 23.4801C29.4401 23.4801 29.0301 23.2801 28.7301 22.8801C28.3301 22.2701 28.5301 21.4701 29.1301 21.1701H29.3301C29.5301 21.0701 29.7301 20.9701 30.0401 20.9701C30.4401 20.9701 30.8501 21.1701 31.1501 21.5801C31.2501 21.7801 31.3501 21.9801 31.3501 22.2901C31.3501 22.6901 31.1501 23.1001 30.7501 23.4001C30.7501 23.4001 30.6501 23.4001 30.6501 23.5001C30.3501 23.4001 30.1501 23.5001 29.8401 23.5001V23.4801ZM33.0701 21.7701C32.5701 21.7701 32.1601 21.4701 31.9601 21.0601C31.6601 20.4601 31.9601 19.6501 32.5601 19.3501H32.7601C32.9601 19.2501 33.0601 19.2501 33.2601 19.2501C33.7601 19.2501 34.1701 19.5501 34.3701 19.9601C34.4701 20.1601 34.4701 20.2601 34.4701 20.4601C34.4701 20.9601 34.1701 21.3701 33.7601 21.5701H33.6601C33.4601 21.6701 33.2601 21.7701 33.0501 21.7701H33.0701ZM36.5001 20.4601C36.0001 20.4601 35.4901 20.0601 35.2901 19.5501C35.1901 19.2501 35.1901 18.8401 35.3901 18.5401C35.5901 18.2401 35.7901 18.0401 36.1001 17.9401H36.2001C36.3001 17.9401 36.4001 17.8401 36.5001 17.8401C37.1001 17.8401 37.5101 18.2401 37.7101 18.7501V19.0501C37.7101 19.6501 37.3101 20.1601 36.8001 20.2601H36.7001C36.8001 20.4601 36.6001 20.4601 36.5001 20.4601ZM40.1301 19.6501C39.8301 19.6501 39.5301 19.5501 39.3201 19.3501C39.1201 19.1501 38.9201 18.8501 38.9201 18.5401C38.8201 17.8301 39.3201 17.2301 40.0301 17.1301H40.3301C40.9301 17.1301 41.5401 17.6301 41.5401 18.2401V18.4401C41.5401 19.0501 41.0401 19.6501 40.4301 19.6501H40.1301Z" fill="#F9F9F9"/>
<path d="M43.85 22.9801C41.33 22.9801 39.21 21.0601 39.01 18.5401V18.0401C39.01 15.3201 41.23 13.1001 43.95 13.1001C46.67 13.1001 48.89 15.3201 48.89 18.0401V18.5401C48.49 21.0601 46.37 22.9801 43.85 22.9801ZM43.85 15.6201C42.54 15.6201 41.43 16.7301 41.43 18.0401V18.2401C41.53 19.4501 42.54 20.3601 43.85 20.3601C45.16 20.3601 46.07 19.4501 46.27 18.2401V18.0401C46.27 16.7301 45.16 15.6201 43.85 15.6201Z" fill="#F9F9F9"/>
<path d="M44.25 74.9C41.53 74.9 39.3101 72.68 39.3101 69.96V69.86C39.4101 67.24 41.53 65.02 44.25 65.02C46.97 65.02 48.99 67.04 49.19 69.66V69.96C49.09 72.68 46.97 74.9 44.25 74.9ZM44.25 67.54C42.94 67.54 41.93 68.55 41.83 69.86C41.83 71.17 42.94 72.28 44.25 72.28C45.56 72.28 46.67 71.17 46.67 69.86V69.76C46.57 68.55 45.46 67.54 44.25 67.54Z" fill="#F9F9F9"/>
<path d="M62.2002 30.4402C60.8902 30.4402 59.6802 29.9402 58.7702 29.0302C57.0602 27.3202 56.8502 24.4901 58.3702 22.5801C58.4702 22.3801 58.6702 22.2801 58.7702 22.0801C59.6802 21.1701 60.8902 20.6702 62.2002 20.6702C63.5102 20.6702 64.7202 21.1701 65.6302 22.0801C67.5502 24.0001 67.5502 27.1202 65.6302 29.0402C65.5302 29.1402 65.3302 29.3402 65.1302 29.4402C64.4202 30.0502 63.3202 30.4501 62.2102 30.4501L62.2002 30.4402ZM62.3002 23.0801C61.7002 23.0801 61.0902 23.2802 60.5902 23.7902C60.4902 23.8902 60.4902 23.9902 60.3902 23.9902C59.6802 24.9002 59.7802 26.3102 60.5902 27.1202C60.9902 27.5202 61.6002 27.8301 62.3002 27.8301C62.8002 27.8301 63.3102 27.6301 63.8102 27.3301C63.9102 27.2301 64.0102 27.2302 64.0102 27.1302C64.9202 26.2202 64.9202 24.7101 64.0102 23.7001C63.5102 23.4001 62.9002 23.0901 62.3002 23.0901V23.0801Z" fill="#F9F9F9"/>
<path d="M25.8002 67.3401C24.4902 67.3401 23.2802 66.8402 22.3702 65.9302C21.4602 65.0202 20.9602 63.8102 20.9602 62.5002C20.9602 61.1902 21.4602 59.9802 22.3702 59.0702C23.2802 58.1602 24.4902 57.6602 25.8002 57.6602C27.1102 57.6602 28.3202 58.1602 29.2302 59.0702C31.1502 60.9902 31.1502 64.0102 29.3302 65.9302L29.2302 66.0302C28.3202 66.8402 27.1102 67.3401 25.8002 67.3401ZM24.0902 60.7902C23.6902 61.1902 23.3802 61.8002 23.3802 62.5002C23.3802 63.1002 23.5802 63.7101 24.0902 64.2101C24.4902 64.6101 25.1002 64.9202 25.8002 64.9202C26.4002 64.9202 27.0102 64.7201 27.5102 64.2101C28.4202 63.3001 28.4202 61.7902 27.5102 60.8802C27.1102 60.4802 26.5002 60.1702 25.8002 60.1702C25.2002 60.0702 24.5902 60.2702 24.0902 60.7802V60.7902Z" fill="#F9F9F9"/>
<path d="M69.9601 48.6901H69.4601C66.9401 48.3901 65.1201 46.37 65.1201 43.85C65.1201 41.33 66.9401 39.31 69.3501 39.01H69.9601C72.6801 39.01 74.9001 41.23 74.9001 43.95C74.9001 46.67 72.6801 48.6901 69.9601 48.6901ZM69.9601 41.4301H69.6601C68.4501 41.6301 67.5401 42.64 67.5401 43.85C67.5401 45.06 68.4501 46.07 69.6601 46.27H69.9601C71.2701 46.27 72.3801 45.16 72.3801 43.85C72.3801 42.54 71.2701 41.4301 69.9601 41.4301Z" fill="#F9F9F9"/>
<path d="M18.0401 49.09C15.3201 49.09 13.1001 46.87 13.1001 44.15C13.1001 41.43 15.3201 39.21 18.0401 39.21H18.1401C20.7601 39.21 22.9801 41.43 22.9801 44.15C22.9801 46.87 20.8601 48.99 18.1401 49.09H18.0401ZM18.0401 41.73C16.7301 41.73 15.6201 42.84 15.6201 44.15C15.6201 45.46 16.7301 46.57 18.0401 46.57C19.3501 46.57 20.3601 45.46 20.3601 44.15C20.4601 42.84 19.4501 41.83 18.0401 41.73Z" fill="#F9F9F9"/>
<path d="M25.5002 30.64C24.2902 30.64 23.0802 30.24 22.2702 29.43C22.2035 29.3633 22.1368 29.2966 22.0702 29.23C21.1602 28.32 20.6602 27.11 20.6602 25.8C20.6602 24.49 21.1602 23.28 22.0702 22.37C22.9802 21.46 24.1902 20.96 25.5002 20.96C26.8102 20.96 28.0202 21.46 28.9302 22.37C28.9968 22.4367 29.0635 22.5033 29.1302 22.57C30.8402 24.49 30.7402 27.51 28.9302 29.32C28.1202 30.13 26.8102 30.63 25.5002 30.63V30.64ZM25.5002 23.38C24.9002 23.38 24.2902 23.58 23.7902 24.09C23.3902 24.49 23.0802 25.1 23.0802 25.8C23.0802 26.4 23.2802 27.0099 23.7902 27.5099L23.8902 27.61C24.2902 28.01 24.9002 28.22 25.5002 28.22C26.1002 28.22 26.7102 28.0199 27.2102 27.5099C28.1202 26.5999 28.1202 25.19 27.3102 24.18L27.2102 24.08C26.8102 23.58 26.2002 23.37 25.5002 23.37V23.38Z" fill="#F9F9F9"/>
<path d="M62.5001 67.1402C61.1901 67.1402 59.9801 66.6402 59.0701 65.7302C58.9701 65.6302 58.8701 65.5302 58.8701 65.5302C57.1601 63.6102 57.2601 60.6902 59.0701 58.8802C59.9801 57.9702 61.1901 57.4702 62.5001 57.4702C63.6101 57.4702 64.7201 57.8702 65.6201 58.5802C65.7201 58.6802 65.8201 58.7802 66.0201 58.8802C66.9301 59.7902 67.4301 61.0002 67.4301 62.3102C67.4301 63.6202 66.9301 64.8302 66.0201 65.7402C65.0101 66.6502 63.8001 67.1502 62.4901 67.1502L62.5001 67.1402ZM62.5001 59.7802C61.9001 59.7802 61.2901 59.9802 60.7901 60.4902C59.8801 61.4002 59.8801 62.8102 60.6901 63.7202L60.7901 63.8203C61.1901 64.2203 61.8001 64.5302 62.5001 64.5302C63.1001 64.5302 63.7101 64.3303 64.2101 63.8203C64.6101 63.4203 64.9201 62.8102 64.9201 62.1102C64.9201 61.4102 64.7201 60.9002 64.2101 60.4002C64.1434 60.3335 64.0768 60.2669 64.0101 60.2002C63.6101 60.0002 63.1001 59.8002 62.5001 59.8002V59.7802Z" fill="#F9F9F9"/>
<path d="M46.9802 59.78C46.6802 59.78 46.3702 59.68 46.0702 59.48C45.5702 58.98 45.5702 58.17 46.0702 57.67C46.3702 57.37 46.7802 56.96 47.0802 56.66C47.3802 56.26 47.7902 55.95 48.0902 55.65C51.6202 52.02 53.0302 50.61 53.5302 47.89C53.9302 45.77 53.9302 42.75 53.9302 37.81V36C51.5102 36.2 49.4902 36.1 47.5802 35.6C46.2702 35.2 45.1602 34.69 44.1502 33.99C41.2302 35.7 37.9002 36.41 34.4702 36.11V39.44C34.4702 43.67 34.5702 46.09 34.9702 47.91C35.1702 49.02 35.5702 49.82 36.0802 50.73C36.9902 52.24 38.6002 53.86 40.9202 56.28L42.3302 57.69C42.8302 58.19 42.8302 59 42.3302 59.5C41.8302 60 41.0202 60 40.5102 59.5L39.1002 58.09C36.5802 55.57 34.9702 53.86 33.8602 52.04C33.1502 50.93 32.7502 49.82 32.4502 48.51C32.0502 46.49 31.9502 43.97 31.9502 39.44V34.6C31.9502 34.2 32.1502 33.89 32.4502 33.59C32.7502 33.39 33.1602 33.29 33.4602 33.29C37.1902 34 40.5202 33.29 43.5402 31.27C44.0402 30.97 44.6502 30.97 45.0502 31.37C45.9602 32.18 47.0702 32.68 48.2802 33.08C50.0902 33.58 52.4102 33.69 55.0302 33.28C55.4302 33.18 55.7402 33.38 56.0402 33.58C56.3402 33.78 56.4402 34.19 56.4402 34.49V37.72C56.4402 43.06 56.4402 45.99 55.9402 48.31C55.2302 51.74 53.5202 53.45 49.7902 57.28C49.4902 57.58 49.1802 57.89 48.7802 58.29C48.4802 58.59 48.1802 58.9 47.7702 59.3C47.5702 59.6 47.2702 59.8 46.9602 59.8L46.9802 59.78Z" fill="#F9F9F9"/>
<path d="M52.2201 59.7802H35.8901C35.1801 59.7802 34.5801 59.1802 34.5801 58.4702C34.5801 57.7602 35.1801 57.1602 35.8901 57.1602H52.3201C53.0301 57.1602 53.6301 57.7602 53.6301 58.4702C53.5301 59.1802 52.9201 59.7802 52.2201 59.7802Z" fill="#F9F9F9"/>
<defs>
<linearGradient id="paint0_linear_1090_973" x1="0" y1="44" x2="88" y2="44" gradientUnits="userSpaceOnUse">
<stop stop-color="#5D41D0"/>
<stop offset="1" stop-color="#4A34A5"/>
</linearGradient>
</defs>
</svg>
